<svg width="1576" height="306" viewBox="0 0 1576 306" fill="none" xmlns="http://www.w3.org/2000/svg">
<g filter="url(#filter0_ddif_2113_2)">
<path d="M160.6 81.8C160.6 75.4 164.533 72.2 172.4 72.2C180.267 72.2 184.2 75.4 184.2 81.8V219.8C184.2 224.467 181.733 227.867 176.8 230H177C174.867 230.933 172.6 231.667 170.2 232.2C167.8 232.733 165.467 233 163.2 233C161.467 233 159.667 232.8 157.8 232.4C155.933 232.133 154.133 231.667 152.4 231C150.8 230.2 149.267 229.2 147.8 228C146.467 226.667 145.4 225.067 144.6 223.2L101.2 115L95.8 115.6V223.6C95.8 230 91.8 233.2 83.8 233.2C75.9333 233.2 72 230 72 223.6V85.8C72 80.3333 74.4 76.6667 79.2 74.8C83.6 73.0667 88.2667 72.2 93.2 72.2C96.6667 72.2 100.133 72.9333 103.6 74.4C107.2 75.7333 109.933 78.3333 111.8 82.2L155 190.6L160.6 190V81.8ZM238.592 223.6C238.592 230 234.592 233.2 226.592 233.2C218.726 233.2 214.792 230 214.792 223.6V81.8C214.792 75.4 218.726 72.2 226.592 72.2C234.592 72.2 238.592 75.4 238.592 81.8V223.6ZM352.833 159.8C352.833 153.267 356.833 150 364.833 150C372.699 150 376.633 153.133 376.633 159.4V200C376.633 210.8 373.033 218.867 365.833 224.2C362.366 226.733 358.766 228.733 355.033 230.2C351.433 231.533 347.899 232.2 344.433 232.2H302.833C299.366 232.2 295.766 231.533 292.033 230.2C288.433 228.733 284.899 226.733 281.433 224.2C277.966 221.533 275.299 218.267 273.433 214.4C271.566 210.4 270.633 205.6 270.633 200V105C270.633 99.5333 271.566 94.8 273.433 90.8C275.433 86.8 278.099 83.5333 281.433 81H281.233C284.699 78.7333 288.299 76.8667 292.033 75.4C295.766 73.9333 299.366 73.2 302.833 73.2H342.433C345.899 73.2 349.499 73.9333 353.233 75.4C356.966 76.8667 360.566 78.7333 364.033 81H363.833C370.899 86.2 374.433 94.2 374.433 105V118.8C374.433 125.2 370.499 128.4 362.633 128.4C354.766 128.4 350.833 125.2 350.833 118.8V106.8C350.833 103.467 349.833 100.4 347.833 97.6C345.833 94.8 342.366 93.4 337.433 93.4H308.033C302.966 93.4 299.433 94.8 297.433 97.6C295.433 100.4 294.433 103.467 294.433 106.8V198.4C294.433 200.133 294.633 201.8 295.033 203.4C295.566 205 296.366 206.467 297.433 207.8C298.499 209 299.899 210 301.633 210.8C303.366 211.6 305.499 212 308.033 212H339.433C344.366 212 347.833 210.6 349.833 207.8C351.833 205 352.833 201.867 352.833 198.4V159.8ZM343.433 157.6C343.433 159.867 342.966 162.067 342.033 164.2C341.233 166.2 340.033 167.933 338.433 169.4C336.966 170.867 335.233 172.067 333.233 173C331.233 173.8 329.033 174.2 326.633 174.2C322.099 174.2 318.233 172.6 315.033 169.4C311.833 166.2 310.233 162.267 310.233 157.6C310.233 153.067 311.833 149.2 315.033 146C318.233 142.8 322.099 141.2 326.633 141.2C329.033 141.2 331.233 141.667 333.233 142.6C335.233 143.4 336.966 144.533 338.433 146C340.033 147.467 341.233 149.2 342.033 151.2C342.966 153.2 343.433 155.333 343.433 157.6ZM491.952 81.8C491.952 75.4 495.885 72.2 503.752 72.2C511.752 72.2 515.752 75.4 515.752 81.8V223.6C515.752 230 511.752 233.2 503.752 233.2C495.885 233.2 491.952 230 491.952 223.6V81.8ZM431.152 223.6C431.152 230 427.152 233.2 419.152 233.2C411.285 233.2 407.352 230 407.352 223.6V81.8C407.352 75.4 411.285 72.2 419.152 72.2C427.152 72.2 431.152 75.4 431.152 81.8V223.6ZM477.952 149.4C477.952 154.067 476.352 158 473.152 161.2C469.952 164.4 466.018 166 461.352 166C456.818 166 452.952 164.4 449.752 161.2C446.552 158 444.952 154.067 444.952 149.4C444.952 144.733 446.552 140.8 449.752 137.6C452.952 134.4 456.818 132.8 461.352 132.8C466.018 132.8 469.952 134.4 473.152 137.6C476.352 140.8 477.952 144.733 477.952 149.4ZM598.447 224C598.447 230.4 594.447 233.6 586.447 233.6C578.58 233.6 574.647 230.4 574.647 224V93.4H539.647C534.847 93.4 532.314 90 532.047 83.2C532.047 76.5333 534.58 73.2 539.647 73.2H633.447C638.514 73.2 640.914 76.5333 640.647 83.2C640.647 90 638.247 93.4 633.447 93.4H598.447V224ZM841.084 72.2C845.351 72.2 850.018 73.2 855.084 75.2C859.751 77.0667 862.084 80.6 862.084 85.8V223.6C862.084 230 858.151 233.2 850.284 233.2C842.418 233.2 838.484 230 838.484 223.6V120.8L832.684 120.2L824.684 146.2L800.684 226.2C799.218 230.867 795.618 233.133 789.884 233C787.351 232.867 785.151 232.2 783.284 231C781.418 229.8 780.151 228.067 779.484 225.8L765.084 179.2C762.151 170 759.218 160.667 756.284 151.2C753.351 141.6 750.151 131 746.684 119.4L740.884 120.2V223.6C740.884 230 736.951 233.2 729.084 233.2C721.218 233.2 717.284 230 717.284 223.6V85.8C717.284 80.7333 719.618 77.2 724.284 75.2C729.218 73.2 733.951 72.2667 738.484 72.4C740.484 72.4 742.551 72.6667 744.684 73.2C746.818 73.7333 748.818 74.5333 750.684 75.6C752.551 76.5333 754.218 77.8 755.684 79.4C757.151 80.8667 758.284 82.6 759.084 84.6L790.484 191.6C792.751 183.733 795.151 175.2 797.684 166C800.218 156.8 802.818 147.467 805.484 138C808.151 128.533 810.751 119.2 813.284 110C815.951 100.667 818.418 92 820.684 84C821.484 82.1333 822.618 80.4667 824.084 79C825.551 77.5333 827.218 76.3333 829.084 75.4C830.951 74.3333 832.884 73.5333 834.884 73C837.018 72.4667 839.084 72.2 841.084 72.2ZM942.959 92.8L899.159 227.2V227C898.359 229 897.226 230.667 895.759 232C894.426 233.2 892.759 233.8 890.759 233.8C889.693 233.8 888.626 233.667 887.559 233.4C886.626 233.267 885.626 233.067 884.559 232.8H884.759C877.159 230.4 874.359 226.133 876.359 220L921.959 81.4C922.626 79.2667 923.759 77.4667 925.359 76C927.093 74.5333 929.093 73.6667 931.359 73.4C933.626 73 935.826 72.7333 937.959 72.6C940.093 72.3333 941.759 72.2 942.959 72.2C944.159 72.2 945.826 72.3333 947.959 72.6C950.093 72.7333 952.293 72.9333 954.559 73.2C956.426 73.4667 958.226 74.4667 959.959 76.2C961.826 77.9333 963.226 79.6667 964.159 81.4C971.626 104.333 979.159 127.467 986.759 150.8C994.493 174 1002.09 197.067 1009.56 220C1011.43 226.133 1008.63 230.4 1001.16 232.8C1000.09 233.067 999.093 233.267 998.159 233.4C997.359 233.667 996.426 233.8 995.359 233.8C993.493 233.8 991.759 233.2 990.159 232C988.693 230.667 987.626 229 986.959 227V227.2L942.959 92.8ZM957.959 184C957.959 188.267 956.426 191.933 953.359 195C950.426 197.933 946.826 199.4 942.559 199.4C938.293 199.4 934.693 197.933 931.759 195C928.826 191.933 927.359 188.267 927.359 184C927.359 179.733 928.826 176.133 931.759 173.2C934.693 170.133 938.293 168.6 942.559 168.6C946.826 168.6 950.426 170.133 953.359 173.2C956.426 176.133 957.959 179.733 957.959 184ZM1084.07 166.2H1068.67C1066.4 166.2 1064.6 165.333 1063.27 163.6C1062.07 161.733 1061.47 159.267 1061.47 156.2C1061.47 149.4 1064.27 146 1069.87 146H1093.27C1098.2 146 1101.67 144.6 1103.67 141.8C1105.67 139 1106.67 135.933 1106.67 132.6V106.8C1106.67 103.467 1105.67 100.4 1103.67 97.6C1101.67 94.8 1098.2 93.4 1093.27 93.4H1051.07V223.8C1051.07 230.2 1047.14 233.4 1039.27 233.4C1031.4 233.4 1027.47 230.2 1027.47 223.8V85.2C1027.47 80.4 1028.67 77.2 1031.07 75.6C1033.6 74 1036.6 73.2 1040.07 73.2H1098.27C1101.74 73.2 1105.34 73.9333 1109.07 75.4C1112.8 76.8667 1116.4 78.7333 1119.87 81H1119.67C1123.14 83.5333 1125.8 86.8667 1127.67 91C1129.54 95 1130.47 99.6667 1130.47 105V134.2C1130.47 145 1126.87 153.067 1119.67 158.4C1118.2 159.467 1116.6 160.467 1114.87 161.4C1113.27 162.333 1111.6 163.267 1109.87 164.2L1141.87 217C1142.27 217.667 1142.67 218.533 1143.07 219.6C1143.47 220.667 1143.67 221.533 1143.67 222.2C1143.67 225.4 1141.4 228.467 1136.87 231.4V231.2C1133.8 233.067 1131.2 234 1129.07 234C1126 234 1123.54 232.467 1121.67 229.4L1121.87 229.6L1084.07 166.2ZM1246.83 75.6C1248.83 73.2 1251.1 72 1253.63 72C1256.43 72 1259.3 73.2667 1262.23 75.8C1263.7 77.2667 1264.9 78.7333 1265.83 80.2C1266.9 81.6667 1267.43 83.1333 1267.43 84.6C1267.43 87 1266.57 89.0667 1264.83 90.8L1238.03 122L1185.83 183.4V223.6C1185.83 230 1181.83 233.2 1173.83 233.2C1165.97 233.2 1162.03 230 1162.03 223.6V81.8C1162.03 75.4 1165.97 72.2 1173.83 72.2C1181.83 72.2 1185.83 75.4 1185.83 81.8V147.2L1246.83 75.6ZM1218.43 170.6C1217.1 168.733 1216.43 166.467 1216.43 163.8C1216.43 159.8 1218.1 156.6 1221.43 154.2H1221.23C1223.9 152.333 1226.57 151.4 1229.23 151.4C1231.77 151.4 1233.9 152.867 1235.63 155.8L1274.23 212.2L1274.03 212C1275.23 213.867 1275.83 215.867 1275.83 218C1275.83 221.467 1274.1 224.533 1270.63 227.2H1270.83C1269.37 228.133 1267.97 228.867 1266.63 229.4C1265.3 229.933 1264.1 230.2 1263.03 230.2C1261.97 230.2 1260.83 229.8 1259.63 229C1258.57 228.2 1257.5 227.2 1256.43 226L1218.43 170.6ZM1305.31 232.2C1300.37 232.2 1297.04 230.933 1295.31 228.4C1293.57 225.867 1292.71 223.067 1292.71 220V85.2C1292.71 82.1333 1293.57 79.4 1295.31 77C1297.04 74.4667 1300.37 73.2 1305.31 73.2H1374.91C1379.84 73.2 1382.44 76.5333 1382.71 83.2C1382.97 90 1380.37 93.4 1374.91 93.4H1316.31V212H1378.51C1383.44 212 1385.97 215.267 1386.11 221.8C1386.37 228.733 1383.84 232.2 1378.51 232.2H1305.31ZM1367.51 149.4C1367.51 154.067 1365.84 158 1362.51 161.2C1359.31 164.4 1355.37 166 1350.71 166C1346.17 166 1342.31 164.4 1339.11 161.2C1335.91 158 1334.31 154.067 1334.31 149.4C1334.31 144.733 1335.91 140.8 1339.11 137.6C1342.31 134.4 1346.17 132.8 1350.71 132.8C1355.37 132.8 1359.31 134.4 1362.51 137.6C1365.84 140.8 1367.51 144.733 1367.51 149.4ZM1461.14 224C1461.14 230.4 1457.14 233.6 1449.14 233.6C1441.28 233.6 1437.34 230.4 1437.34 224V93.4H1402.34C1397.54 93.4 1395.01 90 1394.74 83.2C1394.74 76.5333 1397.28 73.2 1402.34 73.2H1496.14C1501.21 73.2 1503.61 76.5333 1503.34 83.2C1503.34 90 1500.94 93.4 1496.14 93.4H1461.14V224Z" fill="url(#paint0_linear_2113_2)"/>
<path d="M160.6 81.8C160.6 75.4 164.533 72.2 172.4 72.2C180.267 72.2 184.2 75.4 184.2 81.8V219.8C184.2 224.467 181.733 227.867 176.8 230H177C174.867 230.933 172.6 231.667 170.2 232.2C167.8 232.733 165.467 233 163.2 233C161.467 233 159.667 232.8 157.8 232.4C155.933 232.133 154.133 231.667 152.4 231C150.8 230.2 149.267 229.2 147.8 228C146.467 226.667 145.4 225.067 144.6 223.2L101.2 115L95.8 115.6V223.6C95.8 230 91.8 233.2 83.8 233.2C75.9333 233.2 72 230 72 223.6V85.8C72 80.3333 74.4 76.6667 79.2 74.8C83.6 73.0667 88.2667 72.2 93.2 72.2C96.6667 72.2 100.133 72.9333 103.6 74.4C107.2 75.7333 109.933 78.3333 111.8 82.2L155 190.6L160.6 190V81.8ZM238.592 223.6C238.592 230 234.592 233.2 226.592 233.2C218.726 233.2 214.792 230 214.792 223.6V81.8C214.792 75.4 218.726 72.2 226.592 72.2C234.592 72.2 238.592 75.4 238.592 81.8V223.6ZM352.833 159.8C352.833 153.267 356.833 150 364.833 150C372.699 150 376.633 153.133 376.633 159.4V200C376.633 210.8 373.033 218.867 365.833 224.2C362.366 226.733 358.766 228.733 355.033 230.2C351.433 231.533 347.899 232.2 344.433 232.2H302.833C299.366 232.2 295.766 231.533 292.033 230.2C288.433 228.733 284.899 226.733 281.433 224.2C277.966 221.533 275.299 218.267 273.433 214.4C271.566 210.4 270.633 205.6 270.633 200V105C270.633 99.5333 271.566 94.8 273.433 90.8C275.433 86.8 278.099 83.5333 281.433 81H281.233C284.699 78.7333 288.299 76.8667 292.033 75.4C295.766 73.9333 299.366 73.2 302.833 73.2H342.433C345.899 73.2 349.499 73.9333 353.233 75.4C356.966 76.8667 360.566 78.7333 364.033 81H363.833C370.899 86.2 374.433 94.2 374.433 105V118.8C374.433 125.2 370.499 128.4 362.633 128.4C354.766 128.4 350.833 125.2 350.833 118.8V106.8C350.833 103.467 349.833 100.4 347.833 97.6C345.833 94.8 342.366 93.4 337.433 93.4H308.033C302.966 93.4 299.433 94.8 297.433 97.6C295.433 100.4 294.433 103.467 294.433 106.8V198.4C294.433 200.133 294.633 201.8 295.033 203.4C295.566 205 296.366 206.467 297.433 207.8C298.499 209 299.899 210 301.633 210.8C303.366 211.6 305.499 212 308.033 212H339.433C344.366 212 347.833 210.6 349.833 207.8C351.833 205 352.833 201.867 352.833 198.4V159.8ZM343.433 157.6C343.433 159.867 342.966 162.067 342.033 164.2C341.233 166.2 340.033 167.933 338.433 169.4C336.966 170.867 335.233 172.067 333.233 173C331.233 173.8 329.033 174.2 326.633 174.2C322.099 174.2 318.233 172.6 315.033 169.4C311.833 166.2 310.233 162.267 310.233 157.6C310.233 153.067 311.833 149.2 315.033 146C318.233 142.8 322.099 141.2 326.633 141.2C329.033 141.2 331.233 141.667 333.233 142.6C335.233 143.4 336.966 144.533 338.433 146C340.033 147.467 341.233 149.2 342.033 151.2C342.966 153.2 343.433 155.333 343.433 157.6ZM491.952 81.8C491.952 75.4 495.885 72.2 503.752 72.2C511.752 72.2 515.752 75.4 515.752 81.8V223.6C515.752 230 511.752 233.2 503.752 233.2C495.885 233.2 491.952 230 491.952 223.6V81.8ZM431.152 223.6C431.152 230 427.152 233.2 419.152 233.2C411.285 233.2 407.352 230 407.352 223.6V81.8C407.352 75.4 411.285 72.2 419.152 72.2C427.152 72.2 431.152 75.4 431.152 81.8V223.6ZM477.952 149.4C477.952 154.067 476.352 158 473.152 161.2C469.952 164.4 466.018 166 461.352 166C456.818 166 452.952 164.4 449.752 161.2C446.552 158 444.952 154.067 444.952 149.4C444.952 144.733 446.552 140.8 449.752 137.6C452.952 134.4 456.818 132.8 461.352 132.8C466.018 132.8 469.952 134.4 473.152 137.6C476.352 140.8 477.952 144.733 477.952 149.4ZM598.447 224C598.447 230.4 594.447 233.6 586.447 233.6C578.58 233.6 574.647 230.4 574.647 224V93.4H539.647C534.847 93.4 532.314 90 532.047 83.2C532.047 76.5333 534.58 73.2 539.647 73.2H633.447C638.514 73.2 640.914 76.5333 640.647 83.2C640.647 90 638.247 93.4 633.447 93.4H598.447V224ZM841.084 72.2C845.351 72.2 850.018 73.2 855.084 75.2C859.751 77.0667 862.084 80.6 862.084 85.8V223.6C862.084 230 858.151 233.2 850.284 233.2C842.418 233.2 838.484 230 838.484 223.6V120.8L832.684 120.2L824.684 146.2L800.684 226.2C799.218 230.867 795.618 233.133 789.884 233C787.351 232.867 785.151 232.2 783.284 231C781.418 229.8 780.151 228.067 779.484 225.8L765.084 179.2C762.151 170 759.218 160.667 756.284 151.2C753.351 141.6 750.151 131 746.684 119.4L740.884 120.2V223.6C740.884 230 736.951 233.2 729.084 233.2C721.218 233.2 717.284 230 717.284 223.6V85.8C717.284 80.7333 719.618 77.2 724.284 75.2C729.218 73.2 733.951 72.2667 738.484 72.4C740.484 72.4 742.551 72.6667 744.684 73.2C746.818 73.7333 748.818 74.5333 750.684 75.6C752.551 76.5333 754.218 77.8 755.684 79.4C757.151 80.8667 758.284 82.6 759.084 84.6L790.484 191.6C792.751 183.733 795.151 175.2 797.684 166C800.218 156.8 802.818 147.467 805.484 138C808.151 128.533 810.751 119.2 813.284 110C815.951 100.667 818.418 92 820.684 84C821.484 82.1333 822.618 80.4667 824.084 79C825.551 77.5333 827.218 76.3333 829.084 75.4C830.951 74.3333 832.884 73.5333 834.884 73C837.018 72.4667 839.084 72.2 841.084 72.2ZM942.959 92.8L899.159 227.2V227C898.359 229 897.226 230.667 895.759 232C894.426 233.2 892.759 233.8 890.759 233.8C889.693 233.8 888.626 233.667 887.559 233.4C886.626 233.267 885.626 233.067 884.559 232.8H884.759C877.159 230.4 874.359 226.133 876.359 220L921.959 81.4C922.626 79.2667 923.759 77.4667 925.359 76C927.093 74.5333 929.093 73.6667 931.359 73.4C933.626 73 935.826 72.7333 937.959 72.6C940.093 72.3333 941.759 72.2 942.959 72.2C944.159 72.2 945.826 72.3333 947.959 72.6C950.093 72.7333 952.293 72.9333 954.559 73.2C956.426 73.4667 958.226 74.4667 959.959 76.2C961.826 77.9333 963.226 79.6667 964.159 81.4C971.626 104.333 979.159 127.467 986.759 150.8C994.493 174 1002.09 197.067 1009.56 220C1011.43 226.133 1008.63 230.4 1001.16 232.8C1000.09 233.067 999.093 233.267 998.159 233.4C997.359 233.667 996.426 233.8 995.359 233.8C993.493 233.8 991.759 233.2 990.159 232C988.693 230.667 987.626 229 986.959 227V227.2L942.959 92.8ZM957.959 184C957.959 188.267 956.426 191.933 953.359 195C950.426 197.933 946.826 199.4 942.559 199.4C938.293 199.4 934.693 197.933 931.759 195C928.826 191.933 927.359 188.267 927.359 184C927.359 179.733 928.826 176.133 931.759 173.2C934.693 170.133 938.293 168.6 942.559 168.6C946.826 168.6 950.426 170.133 953.359 173.2C956.426 176.133 957.959 179.733 957.959 184ZM1084.07 166.2H1068.67C1066.4 166.2 1064.6 165.333 1063.27 163.6C1062.07 161.733 1061.47 159.267 1061.47 156.2C1061.47 149.4 1064.27 146 1069.87 146H1093.27C1098.2 146 1101.67 144.6 1103.67 141.8C1105.67 139 1106.67 135.933 1106.67 132.6V106.8C1106.67 103.467 1105.67 100.4 1103.67 97.6C1101.67 94.8 1098.2 93.4 1093.27 93.4H1051.07V223.8C1051.07 230.2 1047.14 233.4 1039.27 233.4C1031.4 233.4 1027.47 230.2 1027.47 223.8V85.2C1027.47 80.4 1028.67 77.2 1031.07 75.6C1033.6 74 1036.6 73.2 1040.07 73.2H1098.27C1101.74 73.2 1105.34 73.9333 1109.07 75.4C1112.8 76.8667 1116.4 78.7333 1119.87 81H1119.67C1123.14 83.5333 1125.8 86.8667 1127.67 91C1129.54 95 1130.47 99.6667 1130.47 105V134.2C1130.47 145 1126.87 153.067 1119.67 158.4C1118.2 159.467 1116.6 160.467 1114.87 161.4C1113.27 162.333 1111.6 163.267 1109.87 164.2L1141.87 217C1142.27 217.667 1142.67 218.533 1143.07 219.6C1143.47 220.667 1143.67 221.533 1143.67 222.2C1143.67 225.4 1141.4 228.467 1136.87 231.4V231.2C1133.8 233.067 1131.2 234 1129.07 234C1126 234 1123.54 232.467 1121.67 229.4L1121.87 229.6L1084.07 166.2ZM1246.83 75.6C1248.83 73.2 1251.1 72 1253.63 72C1256.43 72 1259.3 73.2667 1262.23 75.8C1263.7 77.2667 1264.9 78.7333 1265.83 80.2C1266.9 81.6667 1267.43 83.1333 1267.43 84.6C1267.43 87 1266.57 89.0667 1264.83 90.8L1238.03 122L1185.83 183.4V223.6C1185.83 230 1181.83 233.2 1173.83 233.2C1165.97 233.2 1162.03 230 1162.03 223.6V81.8C1162.03 75.4 1165.97 72.2 1173.83 72.2C1181.83 72.2 1185.83 75.4 1185.83 81.8V147.2L1246.83 75.6ZM1218.43 170.6C1217.1 168.733 1216.43 166.467 1216.43 163.8C1216.43 159.8 1218.1 156.6 1221.43 154.2H1221.23C1223.9 152.333 1226.57 151.4 1229.23 151.4C1231.77 151.4 1233.9 152.867 1235.63 155.8L1274.23 212.2L1274.03 212C1275.23 213.867 1275.83 215.867 1275.83 218C1275.83 221.467 1274.1 224.533 1270.63 227.2H1270.83C1269.37 228.133 1267.97 228.867 1266.63 229.4C1265.3 229.933 1264.1 230.2 1263.03 230.2C1261.97 230.2 1260.83 229.8 1259.63 229C1258.57 228.2 1257.5 227.2 1256.43 226L1218.43 170.6ZM1305.31 232.2C1300.37 232.2 1297.04 230.933 1295.31 228.4C1293.57 225.867 1292.71 223.067 1292.71 220V85.2C1292.71 82.1333 1293.57 79.4 1295.31 77C1297.04 74.4667 1300.37 73.2 1305.31 73.2H1374.91C1379.84 73.2 1382.44 76.5333 1382.71 83.2C1382.97 90 1380.37 93.4 1374.91 93.4H1316.31V212H1378.51C1383.44 212 1385.97 215.267 1386.11 221.8C1386.37 228.733 1383.84 232.2 1378.51 232.2H1305.31ZM1367.51 149.4C1367.51 154.067 1365.84 158 1362.51 161.2C1359.31 164.4 1355.37 166 1350.71 166C1346.17 166 1342.31 164.4 1339.11 161.2C1335.91 158 1334.31 154.067 1334.31 149.4C1334.31 144.733 1335.91 140.8 1339.11 137.6C1342.31 134.4 1346.17 132.8 1350.71 132.8C1355.37 132.8 1359.31 134.4 1362.51 137.6C1365.84 140.8 1367.51 144.733 1367.51 149.4ZM1461.14 224C1461.14 230.4 1457.14 233.6 1449.14 233.6C1441.28 233.6 1437.34 230.4 1437.34 224V93.4H1402.34C1397.54 93.4 1395.01 90 1394.74 83.2C1394.74 76.5333 1397.28 73.2 1402.34 73.2H1496.14C1501.21 73.2 1503.61 76.5333 1503.34 83.2C1503.34 90 1500.94 93.4 1496.14 93.4H1461.14V224Z" fill="white" fill-opacity="0.8"/>
</g>
<defs>
<filter id="filter0_ddif_2113_2" x="0.291718" y="0.291718" width="1575.16" height="305.417" filterUnits="userSpaceOnUse" color-interpolation-filters="sRGB">
<feFlood flood-opacity="0" result="BackgroundImageFix"/>
<feColorMatrix in="SourceAlpha" type="matrix" values="0 0 0 0 0 0 0 0 0 0 0 0 0 0 0 0 0 0 127 0" result="hardAlpha"/>
<feOffset/>
<feGaussianBlur stdDeviation="35.8541"/>
<feColorMatrix type="matrix" values="0 0 0 0 0.192157 0 0 0 0 1 0 0 0 0 0.611765 0 0 0 0.5 0"/>
<feBlend mode="normal" in2="BackgroundImageFix" result="effect1_dropShadow_2113_2"/>
<feColorMatrix in="SourceAlpha" type="matrix" values="0 0 0 0 0 0 0 0 0 0 0 0 0 0 0 0 0 0 127 0" result="hardAlpha"/>
<feOffset/>
<feGaussianBlur stdDeviation="9.26148"/>
<feColorMatrix type="matrix" values="0 0 0 0 0.191667 0 0 0 0 1 0 0 0 0 0.612 0 0 0 0.7 0"/>
<feBlend mode="normal" in2="effect1_dropShadow_2113_2" result="effect2_dropShadow_2113_2"/>
<feBlend mode="normal" in="SourceGraphic" in2="effect2_dropShadow_2113_2" result="shape"/>
<feColorMatrix in="SourceAlpha" type="matrix" values="0 0 0 0 0 0 0 0 0 0 0 0 0 0 0 0 0 0 127 0" result="hardAlpha"/>
<feOffset/>
<feGaussianBlur stdDeviation="3.58541"/>
<feComposite in2="hardAlpha" operator="arithmetic" k2="-1" k3="1"/>
<feColorMatrix type="matrix" values="0 0 0 0 0.192157 0 0 0 0 1 0 0 0 0 0.611765 0 0 0 0.5 0"/>
<feBlend mode="normal" in2="shape" result="effect3_innerShadow_2113_2"/>
<feGaussianBlur stdDeviation="0.661534" result="effect4_foregroundBlur_2113_2"/>
</filter>
<linearGradient id="paint0_linear_2113_2" x1="790.5" y1="66" x2="790.5" y2="241" gradientUnits="userSpaceOnUse">
<stop stop-color="white"/>
<stop offset="1" stop-color="white" stop-opacity="0"/>
</linearGradient>
</defs>
</svg>
